name rise45.9887peak57.8056fall74.9286.mot
datacolumns 19
datarows 15
range 14.98494800000000 15.00827900000000
endheader
time	ground_force1_vx	ground_force1_vy	ground_force1_vz	ground_force1_px	ground_force1_py	ground_force1_pz	ground_force2_vx	ground_force2_vy	ground_force2_vz	ground_force2_px	ground_force2_py	ground_force2_pz	ground_torque1_x	ground_torque1_y	ground_torque1_z	ground_torque2_x	ground_torque2_y	ground_torque2_z	
14.98494800000000	64.73164199999999	794.25735499999996	60.01262300000000	0.30825900000000	0.00000000000000	0.12764000000000	0.00000000000000	0.00000000000000	0.00000000000000	0.00000000000000	0.00000000000000	0.00000000000000	0.00000000000000	20.26385200000000	0.00000000000000	0.00000000000000	0.00000000000000	0.00000000000000	
14.98660800000000	63.91260900000000	796.64364899999998	60.08880700000000	0.30719300000000	0.00000000000000	0.12762400000000	0.00000000000000	0.00000000000000	0.00000000000000	0.00000000000000	0.00000000000000	0.00000000000000	0.00000000000000	20.35476100000000	0.00000000000000	0.00000000000000	0.00000000000000	0.00000000000000	
14.98828300000000	63.08926300000000	798.86303399999997	60.15982300000000	0.30615300000000	0.00000000000000	0.12760900000000	0.00000000000000	0.00000000000000	0.00000000000000	0.00000000000000	0.00000000000000	0.00000000000000	0.00000000000000	20.44488800000000	0.00000000000000	0.00000000000000	0.00000000000000	0.00000000000000	
14.98994200000000	62.26258000000000	800.91413599999998	60.22601500000000	0.30513600000000	0.00000000000000	0.12759500000000	0.00000000000000	0.00000000000000	0.00000000000000	0.00000000000000	0.00000000000000	0.00000000000000	0.00000000000000	20.53429200000000	0.00000000000000	0.00000000000000	0.00000000000000	0.00000000000000	
14.99161000000000	61.43345800000000	802.79581599999995	60.28766800000000	0.30414200000000	0.00000000000000	0.12758100000000	0.00000000000000	0.00000000000000	0.00000000000000	0.00000000000000	0.00000000000000	0.00000000000000	0.00000000000000	20.62299800000000	0.00000000000000	0.00000000000000	0.00000000000000	0.00000000000000	
14.99328100000000	60.60272200000000	804.50717699999996	60.34500500000000	0.30317000000000	0.00000000000000	0.12756700000000	0.00000000000000	0.00000000000000	0.00000000000000	0.00000000000000	0.00000000000000	0.00000000000000	0.00000000000000	20.71099700000000	0.00000000000000	0.00000000000000	0.00000000000000	0.00000000000000	
14.99494700000000	59.77112900000000	806.04758300000003	60.39819200000000	0.30221700000000	0.00000000000000	0.12755500000000	0.00000000000000	0.00000000000000	0.00000000000000	0.00000000000000	0.00000000000000	0.00000000000000	0.00000000000000	20.79825500000000	0.00000000000000	0.00000000000000	0.00000000000000	0.00000000000000	
14.99661100000000	58.93936300000000	807.41666099999998	60.44733800000000	0.30128400000000	0.00000000000000	0.12754300000000	0.00000000000000	0.00000000000000	0.00000000000000	0.00000000000000	0.00000000000000	0.00000000000000	0.00000000000000	20.88470300000000	0.00000000000000	0.00000000000000	0.00000000000000	0.00000000000000	
14.99827400000000	58.10804600000000	808.61432000000002	60.49249900000000	0.30036800000000	0.00000000000000	0.12753300000000	0.00000000000000	0.00000000000000	0.00000000000000	0.00000000000000	0.00000000000000	0.00000000000000	0.00000000000000	20.97024800000000	0.00000000000000	0.00000000000000	0.00000000000000	0.00000000000000	
14.99994900000000	57.27773500000000	809.64075100000002	60.53368000000000	0.29946800000000	0.00000000000000	0.12752400000000	0.00000000000000	0.00000000000000	0.00000000000000	0.00000000000000	0.00000000000000	0.00000000000000	0.00000000000000	21.05477000000000	0.00000000000000	0.00000000000000	0.00000000000000	0.00000000000000	
15.00161000000000	56.44892500000000	810.49644200000000	60.57083500000000	0.29858200000000	0.00000000000000	0.12751500000000	0.00000000000000	0.00000000000000	0.00000000000000	0.00000000000000	0.00000000000000	0.00000000000000	0.00000000000000	21.13812400000000	0.00000000000000	0.00000000000000	0.00000000000000	0.00000000000000	
15.00328200000000	55.62206000000000	811.18217700000002	60.60387400000000	0.29770800000000	0.00000000000000	0.12750800000000	0.00000000000000	0.00000000000000	0.00000000000000	0.00000000000000	0.00000000000000	0.00000000000000	0.00000000000000	21.22014200000000	0.00000000000000	0.00000000000000	0.00000000000000	0.00000000000000	
15.00494400000000	54.79752500000000	811.69904399999996	60.63266600000000	0.29684500000000	0.00000000000000	0.12750300000000	0.00000000000000	0.00000000000000	0.00000000000000	0.00000000000000	0.00000000000000	0.00000000000000	0.00000000000000	21.30063700000000	0.00000000000000	0.00000000000000	0.00000000000000	0.00000000000000	
15.00661500000000	53.97566000000000	812.04843800000003	60.65704100000000	0.29599200000000	0.00000000000000	0.12749800000000	0.00000000000000	0.00000000000000	0.00000000000000	0.00000000000000	0.00000000000000	0.00000000000000	0.00000000000000	21.37940000000000	0.00000000000000	0.00000000000000	0.00000000000000	0.00000000000000	
15.00827900000000	53.15675900000000	812.23206100000004	60.67679200000000	0.29514500000000	0.00000000000000	0.12749500000000	0.00000000000000	0.00000000000000	0.00000000000000	0.00000000000000	0.00000000000000	0.00000000000000	0.00000000000000	21.45621000000000	0.00000000000000	0.00000000000000	0.00000000000000	0.00000000000000	
